<?xml version="1.0" encoding="utf-8"?>
<!-- Generator: Adobe Illustrator 24.0.0, SVG Export Plug-In . SVG Version: 6.00 Build 0)  -->
<svg version="1.1" id="Layer_1" xmlns="http://www.w3.org/2000/svg" xmlns:xlink="http://www.w3.org/1999/xlink" x="0px" y="0px"
	 viewBox="0 0 841.89 595.28" style="enable-background:new 0 0 841.89 595.28;" xml:space="preserve">
<style type="text/css">
	.st0{fill:#FFFFFF;}
	.st1{fill:#F5333F;}
</style>
<g>
	<path class="st0" d="M287.59,312.47h-0.35l-7.96,40.47h-5.19l9.17-44.8l-9.17-42.03h6.23l6.92,36.49h0.35l7.26-36.49h5.19
		l-8.65,42.03l9.51,44.8h-6.23L287.59,312.47z"/>
	<path class="st0" d="M336.02,323.89v19.37c0,5.88-2.94,10.38-11.07,10.38c-8.3,0-11.24-4.5-11.24-10.38V275.8
		c0-6.4,2.94-10.38,11.24-10.38c8.13,0,11.07,3.98,11.07,10.38v17.47h-6.23V276.5c0-3.46-0.86-5.88-4.84-5.88s-5.02,2.42-5.02,5.88
		v66.94c0,2.59,1.04,5.02,5.02,5.02s4.84-2.42,4.84-4.67v-19.89H336.02z"/>
	<path class="st0" d="M352.11,290.85v-16.6c0-6.75,4.84-8.82,11.93-8.82c6.75,0,11.42,2.08,11.42,8.82v78.7h-6.23v-4.32h-0.35
		c-1.21,2.59-3.11,5.02-8.13,5.02c-4.67,0-8.65-1.73-8.65-7.78v-33.04c0-7.61,3.29-12.11,14.36-12.11h2.77v-25.08
		c0-2.77-1.21-5.02-5.19-5.02c-4.5,0-5.71,2.25-5.71,5.02v15.22H352.11z M358.33,344.47c0,2.42,1.21,3.98,4.67,3.98
		c3.63,0,6.23-4.15,6.23-9.51V305.9h-1.73c-5.88,0-9.17,1.38-9.17,7.96V344.47z"/>
	<path class="st0" d="M393.27,228.07h6.23v124.88h-6.23V228.07z"/>
	<path class="st1" d="M422.33,324.06v19.2c0,3.46,2.08,5.19,5.19,5.19c2.94,0,5.02-1.73,5.02-5.19v-14.88
		c0-4.67-0.17-7.96-2.08-11.07l-10.2-16.78l-1.9-3.29c-1.73-3.11-2.25-5.71-2.25-9.86v-12.28c0-5.36,3.63-9.69,11.24-9.69
		c7.61,0,11.07,3.63,11.07,10.03v15.05h-6.23V276.5c0-3.46-1.21-5.88-4.84-5.88c-3.8,0-5.02,2.42-5.02,5.88v11.76
		c0,2.94,0.52,5.71,2.42,8.65l3.11,5.19l8.13,12.8c2.08,3.46,2.77,6.75,2.77,11.24v17.3c0,6.23-4.15,10.2-11.59,10.2
		c-6.57,0-11.07-3.29-11.07-9.17v-20.41H422.33z"/>
	<path class="st1" d="M475.94,323.89v19.37c0,5.88-2.94,10.38-11.07,10.38c-8.3,0-11.24-4.5-11.24-10.38V275.8
		c0-6.4,2.94-10.38,11.24-10.38c8.13,0,11.07,3.98,11.07,10.38v17.47h-6.23V276.5c0-3.46-0.86-5.88-4.84-5.88
		c-3.98,0-5.02,2.42-5.02,5.88v66.94c0,2.59,1.04,5.02,5.02,5.02c3.98,0,4.84-2.42,4.84-4.67v-19.89H475.94z"/>
	<path class="st1" d="M492.03,290.85v-16.6c0-6.75,4.84-8.82,11.93-8.82c6.75,0,11.42,2.08,11.42,8.82v78.7h-6.23v-4.32h-0.35
		c-1.21,2.59-3.11,5.02-8.13,5.02c-4.67,0-8.65-1.73-8.65-7.78v-33.04c0-7.61,3.29-12.11,14.36-12.11h2.77v-25.08
		c0-2.77-1.21-5.02-5.19-5.02c-4.5,0-5.71,2.25-5.71,5.02v15.22H492.03z M498.25,344.47c0,2.42,1.21,3.98,4.67,3.98
		c3.63,0,6.23-4.15,6.23-9.51V305.9h-1.73c-5.88,0-9.17,1.38-9.17,7.96V344.47z"/>
	<path class="st1" d="M533.88,266.12h6.23v4.67h0.35c1.04-2.25,4.15-5.36,8.13-5.36c5.88,0,9.17,2.42,9.17,10.2v77.31h-6.23v-75.06
		c0-5.53-1.56-7.26-5.19-7.26c-2.77,0-6.23,3.11-6.23,9.51v72.82h-6.23V266.12z"/>
</g>
</svg>
