<?xml version="1.0" encoding="utf-8"?>
<!-- Generator: Adobe Illustrator 21.0.0, SVG Export Plug-In . SVG Version: 6.00 Build 0)  -->
<svg version="1.1" id="Layer_1" xmlns="http://www.w3.org/2000/svg" xmlns:xlink="http://www.w3.org/1999/xlink" x="0px" y="0px"
	 viewBox="0 0 100 100" style="enable-background:new 0 0 100 100;" xml:space="preserve">
<g>
	<g>
		<path d="M70.9,45.6l-5.4-2l2.4-5.2c0.3-0.6,0.2-1.3-0.3-1.8l-4.2-4.2c-0.5-0.5-1.2-0.6-1.8-0.3l-5.2,2.4l-2-5.4
			c-0.2-0.6-0.8-1.1-1.5-1.1h-5.9c-0.7,0-1.3,0.4-1.5,1.1l-2,5.4l-5.2-2.4c-0.6-0.3-1.3-0.2-1.8,0.3l-4.2,4.2
			c-0.5,0.5-0.6,1.2-0.3,1.8l2.4,5.2l-5.4,2c-0.6,0.2-1.1,0.8-1.1,1.5V53c0,0.7,0.4,1.3,1.1,1.5l5.4,1.9l-2.4,5.2
			c-0.3,0.6-0.2,1.3,0.3,1.8l4.2,4.2c0.5,0.5,1.2,0.6,1.8,0.3l5.2-2.4l1.9,5.4c0.2,0.6,0.8,1.1,1.5,1.1h6c0.7,0,1.3-0.4,1.5-1.1
			l1.9-5.4l5.2,2.4c0.6,0.3,1.3,0.2,1.8-0.3l4.2-4.2c0.5-0.5,0.6-1.2,0.3-1.8l-2.4-5.2l5.4-1.9c0.6-0.2,1.1-0.8,1.1-1.5v-5.9
			C71.9,46.4,71.5,45.9,70.9,45.6z M50.1,57.9c-4.3,0-7.8-3.5-7.8-7.8c0-4.3,3.5-7.8,7.8-7.8c4.3,0,7.8,3.5,7.8,7.8
			C57.9,54.4,54.4,57.9,50.1,57.9z"/>
	</g>
	<path d="M50,100C22.4,100,0,77.6,0,50S22.4,0,50,0c27.6,0,50,22.4,50,50S77.6,100,50,100z M50,2C23.5,2,2,23.5,2,50
		c0,26.5,21.5,48,48,48s48-21.5,48-48C98,23.5,76.5,2,50,2z"/>
</g>
</svg>
