<?xml version="1.0" encoding="utf-8"?>
<!-- Generator: Adobe Illustrator 21.0.0, SVG Export Plug-In . SVG Version: 6.00 Build 0)  -->
<svg version="1.1" id="Layer_1" xmlns="http://www.w3.org/2000/svg" xmlns:xlink="http://www.w3.org/1999/xlink" x="0px" y="0px"
	 viewBox="0 0 100 100" style="enable-background:new 0 0 100 100;" xml:space="preserve">
<style type="text/css">
	.st0{fill:#ED1C24;}
</style>
<g>
	<path d="M50,100C22.4,100,0,77.6,0,50S22.4,0,50,0s50,22.4,50,50S77.6,100,50,100z M50,2C23.5,2,2,23.5,2,50s21.5,48,48,48
		s48-21.5,48-48S76.5,2,50,2z"/>
	<g>
		<path class="st0" d="M43.6,68.5c0-3.4,3-6.2,6.1-6.2s6.1,2.7,6.1,6.2c0,3.4-2.5,6.2-6.1,6.2C46.2,74.7,43.6,71.9,43.6,68.5z
			 M45.8,56.7l-1-31.3c0-0.5,0.4-0.9,0.9-0.9H54c0.5,0,0.9,0.4,0.9,0.9l-1,31.3c0,0.5-0.4,0.9-0.9,0.9h-6.4
			C46.1,57.6,45.8,57.2,45.8,56.7z"/>
	</g>
</g>
</svg>
