<?xml version="1.0" encoding="utf-8"?>
<!-- Generator: Adobe Illustrator 21.0.0, SVG Export Plug-In . SVG Version: 6.00 Build 0)  -->
<svg version="1.1" id="Layer_1" xmlns="http://www.w3.org/2000/svg" xmlns:xlink="http://www.w3.org/1999/xlink" x="0px" y="0px"
	 viewBox="0 0 100 100" style="enable-background:new 0 0 100 100;" xml:space="preserve">
<style type="text/css">
	.st0{fill:#010101;}
</style>
<g>
	<path d="M50,100C22.4,100,0,77.6,0,50S22.4,0,50,0s50,22.4,50,50S77.6,100,50,100z M50,2C23.5,2,2,23.5,2,50c0,26.5,21.5,48,48,48
		c26.5,0,48-21.5,48-48C98,23.5,76.5,2,50,2z"/>
	<g>
		<path class="st0" d="M57.2,57.9l-5.8-3.3c-1.4-0.8-1.7-2.6-0.7-3.8l11.7-13.8c1.8-2.1,5.1-0.2,4.2,2.4l-5.8,17.1
			C60.3,58,58.6,58.7,57.2,57.9z M46.3,59l1.3-3.7l1.5,0.8L46.3,59z M48.6,39.1l-9.2,7c-0.8,0.6-1.8,0.7-2.7,0.2l-3-1.7
			c-1.8-1-1.7-3.6,0.2-4.4l12.2-5.3C48.8,33.7,51,37.3,48.6,39.1z M46,52.8L46,52.8C46,52.8,45.9,52.9,46,52.8
			c-0.1,0.1-0.1,0.1-0.1,0.1c0,0,0,0,0,0.1c0,0,0,0,0,0c0,0,0,0,0,0.1s0,0,0,0.1v0l0,0c-0.8,2.2-3.9,2.2-4.7,0l-0.9-2.6
			c-0.3-1,0-2.1,0.8-2.8l7.6-5.7c2.4-1.8,5.3,1.3,3.4,3.6L46,52.8z M75.2,21.7C75.2,21.6,75.2,21.6,75.2,21.7c0-0.1,0-0.1,0-0.1
			c0,0,0,0,0-0.1s0,0,0,0c0,0,0,0,0-0.1s0,0,0,0c0,0,0,0,0-0.1s0,0,0,0c0,0,0,0,0-0.1s0,0,0-0.1s0,0,0,0c0,0,0,0,0-0.1c0,0,0,0,0,0
			c0,0,0,0,0-0.1s0,0,0-0.1s0,0,0,0c0,0,0,0,0-0.1v0l0,0c0,0,0-0.1-0.1-0.1l0,0c0,0,0,0,0-0.1c0,0,0,0,0,0c0,0,0,0,0,0c0,0,0,0,0,0
			c0,0,0,0,0,0c0,0,0,0,0,0c0,0,0,0,0,0c0,0,0,0-0.1,0l0,0l0,0c0,0,0,0-0.1,0c0,0,0,0,0,0c0,0,0,0,0,0s0,0-0.1,0c0,0,0,0,0,0
			c0,0,0,0-0.1,0c0,0,0,0,0,0c0,0,0,0-0.1,0c0,0,0,0,0,0c0,0,0,0-0.1,0c0,0,0,0,0,0s0,0-0.1,0c0,0,0,0,0,0c0,0,0,0-0.1,0
			c0,0,0,0,0,0c0,0,0,0-0.1,0c0,0,0,0,0,0c0,0,0,0-0.1,0c0,0,0,0,0,0c0,0,0,0-0.1,0h0L26.2,40.9c-0.4,0.2-0.7,0.6-0.7,1
			c0,0.4,0.2,0.9,0.6,1.1l10.3,5.7c0.5,0.3,0.9,0.8,1.1,1.4l4.8,14l0,0l0,0c0,0,0,0.1,0,0.1c0,0,0,0,0,0c0,0,0,0,0,0.1c0,0,0,0,0,0
			c0,0,0,0,0,0.1c0,0,0,0,0,0c0,0,0,0,0.1,0.1c0,0,0,0,0,0c0,0,0,0.1,0.1,0.1l0,0c0,0,0,0,0,0c0,0,0,0,0.1,0s0,0,0,0c0,0,0,0,0.1,0
			c0,0,0,0,0,0c0,0,0,0,0.1,0s0,0,0.1,0s0,0,0.1,0s0,0,0,0c0,0,0,0,0.1,0s0,0,0,0c0,0,0,0,0.1,0c0,0,0,0,0,0c0,0,0,0,0.1,0s0,0,0,0
			c0,0,0.1,0,0.1,0l0,0l0,0l0,0c0,0,0.1,0,0.1,0s0,0,0,0c0,0,0.1,0,0.1,0c0,0,0,0,0,0c0,0,0,0,0.1,0c0,0,0,0,0,0c0,0,0.1,0,0.1,0
			c0,0,0,0,0,0c0,0,0,0,0.1,0c0,0,0,0,0,0c0,0,0,0,0.1,0c0,0,0,0,0,0c0,0,0.1,0,0.1-0.1l0,0c0,0,0,0,0.1-0.1c0,0,0,0,0,0l5.6-5.9
			c0.8-0.8,2-1,3-0.5l7,3.9c0.2,0.1,0.4,0.1,0.6,0.1c0.1,0,0.3,0,0.4-0.1c0.3-0.1,0.6-0.4,0.7-0.7L75.2,21.7L75.2,21.7
			C75.2,21.7,75.2,21.7,75.2,21.7L75.2,21.7z M39.9,67.2c-0.5-0.4-1.3-0.4-1.7,0.1L27.8,78.7c-0.4,0.5-0.4,1.2,0.1,1.7
			c0.2,0.2,0.5,0.3,0.8,0.3c0.3,0,0.6-0.1,0.9-0.4L40,68.8C40.4,68.4,40.4,67.6,39.9,67.2 M36.1,60.3c-0.5-0.4-1.2-0.4-1.7,0
			l-9.8,10.1c-0.5,0.5-0.4,1.2,0,1.7c0.2,0.2,0.5,0.3,0.8,0.3s0.6-0.1,0.9-0.4l9.8-10.1C36.6,61.5,36.6,60.7,36.1,60.3 M49.5,66.7
			l-8.7,9.1c-0.5,0.5-0.4,1.2,0,1.7c0.2,0.2,0.5,0.3,0.8,0.3c0.3,0,0.6-0.1,0.9-0.4l8.7-9.1c0.5-0.5,0.4-1.2,0-1.7
			C50.7,66.2,50,66.2,49.5,66.7"/>
	</g>
</g>
</svg>
