<?xml version="1.0" encoding="utf-8"?>
<!-- Generator: Adobe Illustrator 21.0.0, SVG Export Plug-In . SVG Version: 6.00 Build 0)  -->
<svg version="1.1" id="Layer_1" xmlns="http://www.w3.org/2000/svg" xmlns:xlink="http://www.w3.org/1999/xlink" x="0px" y="0px"
	 viewBox="0 0 100 100" style="enable-background:new 0 0 100 100;" xml:space="preserve">
<style type="text/css">
	.st0{fill:#010101;}
</style>
<g>
	<path d="M50,100C22.4,100,0,77.6,0,50C0,22.4,22.4,0,50,0c27.6,0,50,22.4,50,50C100,77.6,77.6,100,50,100z M50,2
		C23.5,2,2,23.5,2,50s21.5,48,48,48s48-21.5,48-48S76.5,2,50,2z"/>
	<g>
		<path d="M67.9,53.8c-6.9,0-12.5,5.6-12.5,12.5c0,6.9,5.6,12.5,12.5,12.5c6.9,0,12.5-5.6,12.5-12.5S74.8,53.8,67.9,53.8z
			 M74.7,67.9h-5.1V73h-3.4v-5.1h-5.1v-3.4h5.1v-5.1h3.4v5.1h5.1V67.9z"/>
		<path class="st0" d="M45.1,38.3c-0.9,0-1.7-0.7-1.7-1.7c0-0.9,0.7-1.7,1.7-1.7h1.1h5h3h5.3h0.8c0.9,0,1.7,0.7,1.7,1.7
			c0,0.9-0.7,1.7-1.7,1.7h-0.8h-1.6H47.4h-1.3H45.1z M30.9,50c0-0.9,0.7-1.7,1.7-1.7h6.9H43h6.9h3h7.4c0.9,0,1.7,0.7,1.7,1.7
			c0,0.9-0.7,1.7-1.7,1.7H50l0,0h-7l0,0H32.6C31.7,51.7,30.9,51,30.9,50z M32.5,41.6h12.6l0,0h2.6l0,0h12.6c0.9,0,1.7,0.7,1.7,1.7
			S61.2,45,60.2,45h-7.4h-3.7h-5.4h-4.2h-7c-0.9,0-1.7-0.7-1.7-1.7S31.7,41.6,32.5,41.6z M52.8,58.4h-4.6h-3.8h-5.1h-6.9
			c-0.9,0-1.7-0.7-1.7-1.7l0,0c0-0.9,0.7-1.7,1.7-1.7h10.9l0,0h6l0,0H56c-0.9,1-1.7,2.1-2.4,3.4C53.6,58.4,52.8,58.4,52.8,58.4z
			 M30.9,63.4c0-0.9,0.7-1.7,1.7-1.7h13.7h0.2h5.7c-0.3,1.1-0.5,2.2-0.5,3.4h-2h-6.4H32.5C31.7,65.1,30.9,64.4,30.9,63.4z
			 M30.7,70.1c0-0.9,0.7-1.7,1.7-1.7h19.4c0.2,1.1,0.5,2.3,0.9,3.4H32.4C31.5,71.8,30.7,71.1,30.7,70.1z M69.4,28.3v3.8v1.1v16.9
			C68.9,50,68.3,50,67.7,50c-0.5,0-1.1,0-1.6,0.1V32.2v-3.8c0-2.1-1.7-3.8-3.8-3.8H40.1V30c0,3.9-3.2,7.1-7.1,7.1h-6v34.5
			c0,2.1,1.7,3.8,3.8,3.8h23.9c0.9,1.3,2,2.4,3.2,3.4h-27c-4,0-7.1-3.2-7.1-7.1V36.1c0-0.4,0.1-0.9,0.3-1.3c0.2-0.4,0.4-0.7,0.7-1.1
			l12.1-11.5c0.3-0.3,0.7-0.5,1-0.7c0.4-0.1,0.8-0.2,1.2-0.2h23.3C66.3,21.2,69.4,24.5,69.4,28.3z"/>
	</g>
</g>
</svg>
