<?xml version="1.0" encoding="utf-8"?>
<!-- Generator: Adobe Illustrator 21.0.0, SVG Export Plug-In . SVG Version: 6.00 Build 0)  -->
<svg version="1.1" id="Layer_1" xmlns="http://www.w3.org/2000/svg" xmlns:xlink="http://www.w3.org/1999/xlink" x="0px" y="0px"
	 viewBox="0 0 100 100" style="enable-background:new 0 0 100 100;" xml:space="preserve">
<style type="text/css">
	.st0{fill:#010101;}
</style>
<g>
	<path d="M50,100C22.4,100,0,77.6,0,50S22.4,0,50,0c27.6,0,50,22.4,50,50S77.6,100,50,100z M50,2C23.5,2,2,23.5,2,50
		c0,26.5,21.5,48,48,48s48-21.5,48-48C98,23.5,76.5,2,50,2z"/>
	<path class="st0" d="M54.7,38c0,6.4-5.2,11.5-11.5,11.5S31.7,44.3,31.7,38c0-6.4,5.2-11.5,11.5-11.5C49.6,26.5,54.7,31.6,54.7,38
		 M65,65.2c-1.6-6.6-5.6-12.1-10.8-15.3c-2.9,2.6-6.7,4.3-10.9,4.3c-4.2,0-8.1-1.6-10.9-4.3c-5.2,3.3-9.2,8.7-10.8,15.3
		c-0.8,3.4,1.4,6.9,4.5,6.9h34.4C63.5,72,65.8,68.6,65,65.2 M80.7,40.7h-7.5c-0.2,0-0.3-0.1-0.3-0.3v-7.5c0-0.2-0.1-0.3-0.2-0.5
		c-0.1-0.1-0.3-0.2-0.5-0.2h-3.6c-0.2,0-0.3,0.1-0.5,0.2C68,32.6,68,32.7,68,32.9v7.5c0,0.2-0.1,0.3-0.3,0.3h-7.5
		c-0.2,0-0.3,0.1-0.5,0.2c-0.1,0.1-0.2,0.3-0.2,0.5V45c0,0.2,0.1,0.3,0.2,0.5c0.1,0.1,0.3,0.2,0.5,0.2h7.5c0.2,0,0.3,0.1,0.3,0.3
		v7.5c0,0.2,0.1,0.3,0.2,0.5c0.1,0.1,0.3,0.2,0.5,0.2h3.6c0.2,0,0.3-0.1,0.5-0.2c0.1-0.1,0.2-0.3,0.2-0.5v-7.5
		c0-0.2,0.1-0.3,0.3-0.3h7.5c0.2,0,0.3-0.1,0.5-0.2c0.1-0.1,0.2-0.3,0.2-0.5v-3.6c0-0.2-0.1-0.3-0.2-0.5
		C81.1,40.7,80.9,40.7,80.7,40.7z"/>
</g>
</svg>
