<?xml version="1.0" encoding="utf-8"?>
<!-- Generator: Adobe Illustrator 21.0.0, SVG Export Plug-In . SVG Version: 6.00 Build 0)  -->
<svg version="1.1" id="Layer_1" xmlns="http://www.w3.org/2000/svg" xmlns:xlink="http://www.w3.org/1999/xlink" x="0px" y="0px"
	 viewBox="0 0 100 100" style="enable-background:new 0 0 100 100;" xml:space="preserve">
<style type="text/css">
	.st0{fill:#231F20;}
	.st1{fill:#DBDCDD;}
</style>
<g>
	<path class="st0" d="M50,2.3C22.4,2.3,0,23.7,0,50c0,26.4,22.4,47.7,50,47.7s50-21.4,50-47.7C100,23.6,77.6,2.3,50,2.3z M50,95.9
		C23.5,95.9,2,75.3,2,50S23.5,4.1,50,4.1S98,24.7,98,50S76.5,95.9,50,95.9z"/>
	<path class="st1" d="M50,4.1c26.5,0,48,20.6,48,45.9c0,9.6-3.1,18.5-8.4,25.9c-2.9-3.2-7.9-4.3-13.5-5.5c-1.2-0.3-2.4-0.5-3.7-0.8
		c-0.5-0.1-1-0.3-1.6-0.4c-1.8-0.4-3.7-0.8-5.4-1.4c-2.1-0.7-3.8-1.7-4.4-3.1c-0.4-0.8-0.5-2.5-0.3-3.9c0.1-0.6,0.6-1.3,1.2-2.1
		c0.3-0.4,0.5-0.7,0.8-1.1c1.4-2.2,2.3-4.1,2.9-6.2c0.1-0.5,0.3-1,0.4-1.6c0.1-0.5,0.2-1,0.3-1.4c1.4-0.6,2.8-2.7,3.6-5.4
		c0.8-2.9,0.5-5.6-0.5-6.6c0.5-5.2-0.6-10.7-3.5-14.1c-2.9-3.5-8.5-6.7-13.9-7.1c-0.7,0-1.4-0.1-2.1,0c-0.7,0-1.4,0-2.1,0.1
		c-5.4,0.4-11,3.6-13.9,7.1c-2.8,3.4-4,8.9-3.5,14.1c-1,1-1.3,3.7-0.5,6.6c0.8,2.7,2.2,4.8,3.6,5.4c0.1,0.4,0.2,0.9,0.3,1.4
		c0.1,0.5,0.2,1.1,0.4,1.6c0.6,2.1,1.5,4,2.9,6.2c0.2,0.3,0.5,0.7,0.8,1.1c0.6,0.8,1.1,1.5,1.2,2.1c0.3,1.3,0.1,3-0.3,3.9
		c-0.6,1.4-2.3,2.3-4.4,3.1c-1.7,0.6-3.7,1-5.4,1.4c-0.6,0.1-1.1,0.3-1.6,0.4c-1.2,0.3-2.4,0.6-3.7,0.8c-5.5,1.2-10.6,2.3-13.5,5.5
		C5.1,68.6,2,59.7,2,50.1C2,24.7,23.5,4.1,50,4.1z"/>
</g>
</svg>
