<?xml version="1.0" encoding="utf-8"?>
<!-- Generator: Adobe Illustrator 21.0.0, SVG Export Plug-In . SVG Version: 6.00 Build 0)  -->
<svg version="1.1" id="Layer_1" xmlns="http://www.w3.org/2000/svg" xmlns:xlink="http://www.w3.org/1999/xlink" x="0px" y="0px"
	 viewBox="0 0 100 100" style="enable-background:new 0 0 100 100;" xml:space="preserve">
<g>
	<path d="M50,100C22.4,100,0,77.6,0,50C0,22.4,22.4,0,50,0s50,22.4,50,50C100,77.6,77.6,100,50,100z M50,2C23.5,2,2,23.5,2,50
		s21.5,48,48,48c26.5,0,48-21.5,48-48S76.5,2,50,2z"/>
	<rect x="21.1" y="37.1" width="8" height="25.7"/>
	<rect x="33.6" y="37.1" width="8" height="25.7"/>
	<rect x="46" y="37.1" width="8" height="25.7"/>
	<rect x="58.4" y="37.1" width="8" height="25.7"/>
	<rect x="70.9" y="37.1" width="8" height="25.7"/>
</g>
</svg>
