<?xml version="1.0" encoding="utf-8"?>
<!-- Generator: Adobe Illustrator 21.0.0, SVG Export Plug-In . SVG Version: 6.00 Build 0)  -->
<svg version="1.1" id="Layer_1" xmlns="http://www.w3.org/2000/svg" xmlns:xlink="http://www.w3.org/1999/xlink" x="0px" y="0px"
	 viewBox="0 0 100 100" style="enable-background:new 0 0 100 100;" xml:space="preserve">
<style type="text/css">
	.st0{fill:#010101;}
</style>
<g>
	<path d="M50,100C22.4,100,0,77.6,0,50S22.4,0,50,0c27.6,0,50,22.4,50,50S77.6,100,50,100z M50,2C23.5,2,2,23.5,2,50
		c0,26.5,21.5,48,48,48s48-21.5,48-48C98,23.5,76.5,2,50,2z"/>
	<g>
		<path class="st0" d="M77,56V45l-5.8-0.7c-0.5-1.6-1.1-3.1-1.9-4.5l3.6-4.6l-7.8-7.8l-4.6,3.6c-1.4-0.8-2.9-1.4-4.5-1.9l-0.7-5.8
			h-11L43.4,29c-1.6,0.5-3.1,1.1-4.5,1.9l-4.6-3.6l-7.8,7.8l3.6,4.6c-0.8,1.4-1.4,2.9-1.9,4.5L22.4,45v11l5.8,0.7
			c0.5,1.6,1.1,3.1,1.9,4.5l-3.6,4.6l7.8,7.8l4.6-3.6c1.4,0.8,2.9,1.4,4.5,1.9l0.7,5.8h11l0.7-5.8c1.6-0.5,3.1-1.1,4.5-1.9l4.6,3.6
			l7.8-7.8l-3.6-4.6c0.8-1.4,1.4-2.9,1.9-4.5L77,56z M53.5,66.4c-1.2,0.3-2.5,0.5-3.9,0.5c-1.3,0-2.6-0.2-3.8-0.4
			c-7.2-1.7-12.6-8.2-12.6-15.9c0-9,7.3-16.4,16.4-16.4S66,41.5,66,50.5C66,58.2,60.7,64.7,53.5,66.4z"/>
		<path class="st0" d="M50,49.9c2.6,0,4.7-2.1,4.7-4.7c0-2.6-2.1-4.7-4.7-4.7c-2.6,0-4.7,2.1-4.7,4.7C45.3,47.8,47.4,49.9,50,49.9z"
			/>
		<path class="st0" d="M49.6,51.5c-4.9,0-9,4-9,9h17.9C58.6,55.5,54.6,51.5,49.6,51.5z"/>
	</g>
</g>
</svg>
