<?xml version="1.0" encoding="utf-8"?>
<!-- Generator: Adobe Illustrator 24.0.3, SVG Export Plug-In . SVG Version: 6.00 Build 0)  -->
<svg version="1.1" id="Layer_1" xmlns="http://www.w3.org/2000/svg" xmlns:xlink="http://www.w3.org/1999/xlink" x="0px" y="0px"
	 viewBox="0 0 56.9 56.9" style="enable-background:new 0 0 56.9 56.9;" xml:space="preserve">
<style type="text/css">
	.st0{fill:#F5333F;}
</style>
<rect width="56.9" height="56.9"/>
<g>
	<g>
		<g>
			<g>
				<g>
					<path class="st0" d="M15.2,33.8L15.2,33.8l-2.2,13h-1.4l2.4-14.4l-2.4-13.5h1.6l1.8,11.7h0.1l1.9-11.7h1.4l-2.3,13.5l2.5,14.4
						h-1.6L15.2,33.8z"/>
					<path class="st0" d="M27.9,37.5v6.2c0,1.9-0.8,3.3-2.9,3.3c-2.2,0-2.9-1.4-2.9-3.3V22c0-2.1,0.8-3.3,2.9-3.3
						c2.1,0,2.9,1.3,2.9,3.3v5.6h-1.6v-5.4c0-1.1-0.2-1.9-1.3-1.9c-1,0-1.3,0.8-1.3,1.9v21.5c0,0.8,0.3,1.6,1.3,1.6
						c1,0,1.3-0.8,1.3-1.5v-6.4H27.9z"/>
					<path class="st0" d="M32.2,26.9v-5.3c0-2.2,1.3-2.8,3.1-2.8c1.8,0,3,0.7,3,2.8v25.2h-1.6v-1.4h-0.1c-0.3,0.8-0.8,1.6-2.1,1.6
						c-1.2,0-2.3-0.6-2.3-2.5V33.9c0-2.4,0.9-3.9,3.8-3.9h0.7v-8c0-0.9-0.3-1.6-1.4-1.6c-1.2,0-1.5,0.7-1.5,1.6v4.9H32.2z
						 M33.8,44.1c0,0.8,0.3,1.3,1.2,1.3c1,0,1.6-1.3,1.6-3.1V31.7h-0.5c-1.5,0-2.4,0.4-2.4,2.6V44.1z"/>
					<path class="st0" d="M43,6.7h1.6v40H43V6.7z"/>
				</g>
			</g>
		</g>
	</g>
</g>
</svg>
